<?xml version="1.0" encoding="utf-8"?>
<!-- Designed by Vexels.com - 2016 All Rights Reserved - https://vexels.com/terms-and-conditions/  -->

<svg version="1.0" id="Capa_1" xmlns="http://www.w3.org/2000/svg" xmlns:xlink="http://www.w3.org/1999/xlink" x="0px" y="0px"
	 width="1200px" height="1200px" viewBox="0 0 1200 1200" enable-background="new 0 0 1200 1200" xml:space="preserve">
<g>
	<path fill="#5CADCE" d="M350.016,537.488c0,0,100.567-67.903,219.095-88.689c-49.977,16.364-186.197,91.551-187.523,92.877
		c-1.326,1.327-28.305,0.884-28.305,0.884L350.016,537.488z"/>
	<path fill="#222223" d="M104.208,696.359c0,0,3.912,18.734,30.552,28.501c23.984,8.793,56.426,8.758,61.958,5.596
		c5.532-3.162,13.365-1.393,13.365-1.393s119.277-15.567,110.736-13.767c-11.972,2.523-11.734,18.028-3.83,17.237
		c7.903-0.791,519.849-28.321,544.427-7.037c17.321,6.262,10.184-0.687,10.184-0.687l135.144-12.645c0,0,42.677,0.79,67.176-16.596
		c24.499-17.387,26.08-23.709,26.08-23.709s-56.904,20.548-75.08,22.919c-18.176,2.371-193.625-2.372-197.577-3.162
		c-3.952-0.79-188.094-10.274-188.094-10.274s-201.529,1.581-202.32-3.161c-0.79-4.742-141.465,18.176-139.885,15.016
		c1.58-3.161-139.886-3.952-139.886-3.952L104.208,696.359z"/>
	<path fill="#222223" d="M386.909,535.734c2.267-1.699,102.571-85.57,272.011-92.937c169.439-7.367,306.578,41.935,307.711,44.768
		c1.134,2.835-35.531,37.246-64.799,45.824c-29.271,8.578-513.789,13.68-513.789,13.68L386.909,535.734z"/>
	<path fill="#5CADCE" d="M464.108,542.309c0,0-31.904,27.883,3.898,0c81.02-63.102,235.272-75.567,349.791-46.742
		c0.779,28.046-0.779,31.162-0.779,31.162l15.58,0.779l1.559-29.604c0,0,48.299,10.128,66.218,18.697
		c17.919,8.569,6.232,17.918,6.232,17.918l-375.499,24.929L464.108,542.309z"/>
	<path opacity="0.3" d="M1061.401,762.189c0-2.174-204.05-12.435-460.147-12.435c-256.095,0-467.259,10.26-467.259,12.435
		c0,2.176,208.084,1.076,464.18,1.076C854.271,763.265,1061.401,764.365,1061.401,762.189z"/>
	<g>
		<path d="M164.585,714.238l19.27-8.717l150.489-6.423l21.105,11.93c0,0,10.094-11.928,13.305-17.434
			c3.212-5.506-42.669-119.75-44.045-119.75c-1.377,0-113.785,9.634-113.785,9.634s-68.083,38.953-67.076,39.435
			c1.007,0.482-9.087,50.951-8.169,54.621C136.598,681.206,164.585,714.238,164.585,714.238z"/>
		<path d="M832.151,708.274c1.374-0.46,19.27-5.966,22.481-6.423c3.211-0.46,149.572-6.423,149.112-6.423
			c-0.457,0,18.811,7.8,18.811,7.8s11.47-11.47,11.47-12.847s-24.315-95.89-24.315-95.89l-115.164-14.223
			c0,0-63.772,23.857-65.608,26.151c-1.836,2.294-24.317,55.058-24.317,55.058L832.151,708.274z"/>
	</g>
	<g>
		<path fill="#2E2E2F" d="M675.971,446.359c0,0-13.813,66.354-29.927,85.159c10.796,0.683,39.403-2.492,39.403-2.492l15.207-83.123
			C700.654,445.902,681.64,445.962,675.971,446.359z"/>
		<path fill="#DBDADB" d="M1089.849,616.772c-7.639-10.038-11.309-31.604-9.846-40.905c1.463-9.298-1.302-21.246-1.302-21.246
			s-4.185-19.739-8.074-23.665c-3.893-3.929,1.726-4.941,7.303-7.952c5.579-3.013,0.8-6.015-2.839-6.13
			c-3.637-0.115-10.407-0.611-10.407-0.611c-10.337-0.743-35.891-12.47-111.92-38.747c-76.024-26.27-157.118-47.29-306.175-39.367
			c-149.061,7.925-241.496,83.771-262.403,94.949c-20.907,11.181-34.17,4.388-34.17,4.388s0,0-8.903,0.634
			c-18.31-0.599-24.859,0.46-65.996,8.728c-55.79,2.442-99.131,18.26-119.04,32.707c-30.375,6.662-52.098,24.425-52.098,24.425
			c-5.57,5.429-3.175,4.492-3.928,8.66c-0.753,4.169,7.071,34.135,7.071,34.135s-6.297,18.811-1.903,20.598
			c4.394,1.785,5.683,4.046,9.384,13.322c-22.824,12.261-9.615,19.076,0.461,24.911c10.077,5.833,36.58,12.822,50.028,10.078
			c-8.419-28.502-2.57-60.173,3.016-72.531c5.587-12.354,21.623-54.811,87.047-54.362c90.628,4.552,96.536,99.138,96.117,110.151
			c0.15,8.101,1.969,11.47,1.969,11.47s2.681,2.064,8.999,0.89c15.777-3.993,413.02-7.659,413.02-7.659s35.4-0.126,48.7,4.91
			c13.304,5.038,12.239-6.185,13.282-18.565c1.043-12.383,11.081-98.376,92.159-98.606c88.971,3.986,89.49,90.874,88.715,97.978
			c-0.778,7.106-3.513,16.608,16.219,12.062c19.732-4.547,33.958-11.901,33.958-11.901s12.774-17.145,15.567-23.376
			c2.793-6.233,1.114-8.567,1.114-8.567s3.401-12.606,7.575-22.865C1096.719,624.461,1096.144,622.835,1089.849,616.772z
			 M942.763,491.951c-1.662,2.3-19.754,21.65-70.777,25.152c-51.023,3.5-252.313,15.743-252.313,15.743s-68.484,2.21-130.741,3.39
			l-53.767,1.052c-14.818,0.256-23.341,0.444-28.56,0.077c0,0,99.092-74.496,205.339-84.697
			c92.629-9.662,171.484-12.544,300.527,28.206C942.175,490.826,944.422,489.648,942.763,491.951z"/>
		<path fill="#F36C28" d="M208.546,562.523c0,0-30.725,20.15-47.53,29.962c-16.806,9.815-16.806,9.815-16.806,9.815
			s-14.087,1.122-13.224,1.107c0.864-0.018,12.445-12.036,29.806-23.013C178.153,569.42,200.215,563.542,208.546,562.523z"/>
		<path fill="#F36C28" d="M108.534,649.095c-0.074-0.561,22.493,0.528,25.141,0.669c2.647,0.137,3.956-0.641,2.703,3.16
			c-1.252,3.803-1.538,8.719-1.538,8.719s-7.359,0.513-13.249-1.266c0,0-4.086-2.212-7.117-2.769
			C111.445,657.052,109.054,653.157,108.534,649.095z"/>
		<path fill="#D3D5D6" d="M434.965,536.271c0,0,5.737-12.027,11.601-17.243c5.864-5.219,8.37-7.82,18.049-6.295
			c9.679,1.522,14.471-0.269,15.801,10.21c1.329,10.476,4.488,12.403,0.841,14.741c-3.648,2.338-5.327,3.505-4.43,6.043
			c0.899,2.537-22.162-1.29-24.689,0.175c-2.527,1.465-2.764,4.024-1.261,8.538c-14.765-0.296-30.117-1.713-30.117-1.713
			s19.738-6.894,16.025-8.242C433.069,541.13,434.965,536.271,434.965,536.271z"/>
		<path fill="#797A7D" d="M592.945,560.875c0.795-0.415,20.429-0.378,25.529-0.756c5.104-0.38,6.788-1.262,8.472-2.431
			c1.682-1.167,3.69-0.068,7.944-0.146c4.254-0.082,3.474,3.626-0.188,5.113c-3.664,1.487-42.25,2.201-42.25,2.201
			S588.448,563.226,592.945,560.875z"/>
		<path fill="#797A7D" d="M828.651,552.531c0.795-0.415,20.428-0.378,25.53-0.758c5.102-0.378,6.788-1.259,8.472-2.426
			c1.682-1.164,3.688-0.066,7.944-0.148c4.256-0.077,3.474,3.626-0.19,5.115c-3.661,1.487-42.248,2.201-42.248,2.201
			S824.154,554.887,828.651,552.531z"/>
		<path fill="#FFFFFF" d="M208.546,562.523c1.616-0.329,70.347-9.455,173.356-10.511c0.002,0,40.312,0.389,40.312,0.389
			s-35.009-5.312-92.895-4.523c-54.867,0.749-97.775,0.311-128.923,11.755c-28.473,10.46-39.108,18.607-39.108,18.607
			S187.487,566.806,208.546,562.523z"/>
		<path fill="#FFFFFF" d="M402.229,672.579c-1.422,0.294,125.324-3.734,257.685-7.948c91.518-3.105,150.538-11.596,150.538-11.596
			s-40.107-16.515-136.135-9.451C578.289,650.647,445.036,663.684,402.229,672.579z"/>
		<path fill="#F36C28" d="M1017.912,535.904c0.128-0.002,0.513-0.007,1.118-0.018c7.798-0.117,51.975-0.742,52.6-0.753
			c0.676-0.013,11.077,15.308,8.05,34.026c-11.209,1.779-18.243-1.686-33.025-10.856c-14.787-9.168-28.23-22.406-28.23-22.406"/>
		<path fill="#FFFFFF" d="M774.456,546.216c-2.58,0.575,24.773-3.1,59.067-5.851c34.291-2.747,190.061-7.747,220.713-7.259
			c-9.588-3.142-18.353-4.79-31.145-11.524c-15.898-8.373-120.155,1.119-132.244,4.513
			C878.761,529.489,815.336,537.15,774.456,546.216z"/>
		<g opacity="0.3">
			<path fill="#FFFFFF" d="M394.888,540.544c-7.055,6.682-11.59,18.214-12.8,32.687c-2.064,24.706-0.984,92.266,5.988,123.515
				l1.051-0.232c-6.833-30.632-7.972-99.174-5.965-123.192c1.237-14.8,5.971-26.449,13.33-32.797
				c0.065-0.053,0.114-0.097,0.165-0.144c0.852-0.095,1.689-0.212,2.48-0.371l-0.212-1.054c-9.119,1.834-23.79-0.946-23.937-0.974
				l-0.203,1.058c0.455,0.086,8.586,1.628,16.561,1.628C392.539,540.668,393.726,540.624,394.888,540.544z"/>
			<path fill="#B6B8BA" d="M1071.591,571.355c-0.033,0.23-3.191,23.062-5.25,31.52c-1.944,7.99-4.596,11.327-24.914,14.679
				c-19.511,3.222-40.827,4.519-42.135,4.19l-0.194,0.502l-0.289,0.453c0.155,0.099,0.789,0.146,1.812,0.146
				c6.001,0,25.413-1.657,40.982-4.227c19.929-3.288,23.579-6.421,25.784-15.487c2.073-8.509,5.241-31.397,5.27-31.626
				L1071.591,571.355z"/>
			<path fill="#FFFFFF" d="M958.19,491.471c-1.326,2.171-13.739,20.039-65.887,27.426c-0.594-1.348-1.074-2.526-1.412-3.361
				c-0.267-0.659-0.455-1.114-0.55-1.295l-0.952,0.5c0.086,0.168,0.256,0.59,0.504,1.199c0.32,0.784,0.76,1.87,1.304,3.109
				c-4.079,0.561-8.388,1.06-12.957,1.479c-37.846,3.481-132.376,9.606-214.085,14.52c0.309-1.326,0.585-2.47,0.813-3.394
				l0.092-0.38l-1.049-0.241l-0.089,0.365c-0.246,0.999-0.547,2.247-0.89,3.719c-62.702,3.767-117.647,6.812-133.287,7.38
				c-37.217,1.357-51.109,0.959-51.189,0.955l-0.037,0.354l-0.008-0.358l-0.335,0.009l-0.299,0.548l0.165,0.267
				c0.051,0.082,0.095,0.152,0.491,0.208l0.001,0.044l-0.001-0.044c0.579,0.077,1.912,0.122,5.132,0.122
				c1.662,0,3.828-0.011,6.653-0.035c7.425-0.068,20.3-0.292,39.467-0.99c15.617-0.57,70.413-3.604,132.996-7.365
				c-3.392,14.765-10.31,49.005-11.812,88.259c-1.656,43.266,0.524,62.454,1.117,66.71c-33.656,0.652-62.283,1.182-62.902,1.195
				l-238.032,5.263l0.024,1.078l238.031-5.266c1.339-0.027,134.276-2.493,164.844-3.339c31.378-0.871,34.818-2.663,61.387-31.96
				c26.902-29.669,80.439-101.799,87.099-111.223c6.165-8.713,4.901-10.264-0.015-13.852c-0.552-0.404-1.149-0.84-1.781-1.326
				c-3.31-2.552-6.11-7.754-7.977-11.834c52.388-7.504,64.996-25.676,66.344-27.885l-0.424-0.336L958.19,491.471z M900.084,532.603
				c0.641,0.495,1.244,0.937,1.805,1.346c4.426,3.228,5.615,4.097-0.23,12.361c-6.656,9.415-60.146,81.484-87.02,111.121
				c-26.277,28.975-29.675,30.749-60.618,31.607c-16.314,0.451-61.787,1.363-100.849,2.121c-0.551-3.851-2.802-22.874-1.127-66.646
				c1.51-39.448,8.498-73.817,11.854-88.37c81.798-4.919,176.536-11.057,214.44-14.541c4.7-0.433,9.126-0.948,13.313-1.529
				C893.563,524.295,896.513,529.854,900.084,532.603z"/>
			<path fill="#FFFFFF" d="M543.939,463.029c78.822-23.367,157.495-20.691,199.758-19.254l5.43,0.182
				c0.886,0.035,90.054,3.964,198.426,41.91c0.526,0.238,1.052,0.475,1.578,0.712l0.561,0.782c0.141-0.104,0.265-0.232,0.402-0.348
				c58.588,26.415,110.512,49.13,111.038,49.362l0.431-0.988c-0.526-0.23-52.216-22.843-110.682-49.197
				c1.35-1.676,2.106-4.022,2.638-5.701c0.205-0.641,0.46-1.441,0.59-1.595l-0.393-0.37l-0.387-0.374
				c-0.281,0.291-0.468,0.858-0.835,2.013c-0.53,1.676-1.299,4.06-2.627,5.568c-0.639-0.285-1.275-0.573-1.914-0.862
				c-108.575-38.02-197.894-41.952-198.787-41.987l-5.433-0.182c-42.323-1.441-121.11-4.12-200.1,19.298
				c-81.668,24.213-144.3,75.339-144.923,75.852l0.684,0.831C400.016,538.167,462.478,487.18,543.939,463.029z"/>
			<path fill="#FFFFFF" d="M152.661,598.31l0.082,1.076c0.235-0.02,23.605-1.785,30.008-0.835
				c6.426,0.948,18.089,4.229,18.206,4.262l0.292-1.036c-0.118-0.033-11.846-3.332-18.341-4.291
				C176.388,596.518,153.627,598.238,152.661,598.31z"/>
		</g>
		<g>
			<path fill="#B6B8BA" d="M394.831,539.987c-7.055,6.68-11.59,18.214-12.799,32.689c-2.064,24.701-0.985,92.262,5.988,123.513
				l1.05-0.232c-6.833-30.634-7.972-99.171-5.965-123.19c1.238-14.805,5.971-26.452,13.33-32.8c0.065-0.055,0.114-0.097,0.165-0.144
				c0.852-0.095,1.69-0.212,2.48-0.371l-0.212-1.056c-9.119,1.834-23.789-0.944-23.937-0.972l-0.203,1.056
				c0.454,0.088,8.585,1.629,16.56,1.629C392.482,540.109,393.669,540.067,394.831,539.987z"/>
			<path fill="#A9ABAE" d="M1071.536,570.798c-0.033,0.228-3.193,23.062-5.252,31.518c-1.944,7.992-4.594,11.329-24.914,14.681
				c-19.511,3.219-40.825,4.521-42.135,4.189l-0.192,0.499l-0.292,0.453c0.157,0.099,0.789,0.15,1.814,0.15
				c6.001,0,25.413-1.659,40.98-4.231c19.929-3.286,23.579-6.419,25.784-15.485c2.073-8.512,5.239-31.397,5.272-31.626
				L1071.536,570.798z"/>
			<path fill="#B6B8BA" d="M958.135,490.913c-1.328,2.171-13.74,20.04-65.887,27.427c-0.594-1.349-1.074-2.526-1.414-3.361
				c-0.267-0.659-0.453-1.114-0.55-1.295l-0.952,0.499c0.088,0.168,0.259,0.59,0.504,1.2c0.318,0.784,0.762,1.869,1.304,3.108
				c-4.077,0.561-8.385,1.061-12.955,1.48c-37.849,3.481-132.377,9.606-214.086,14.52c0.309-1.326,0.585-2.47,0.813-3.394
				l0.092-0.382l-1.049-0.239l-0.088,0.362c-0.246,1.001-0.547,2.247-0.89,3.721c-62.703,3.767-117.648,6.812-133.287,7.38
				c-37.217,1.357-51.109,0.959-51.19,0.955l-0.037,0.354l-0.008-0.36l-0.335,0.009l-0.299,0.55l0.165,0.265
				c0.052,0.084,0.096,0.155,0.491,0.208l0.002,0.046l-0.002-0.046c0.579,0.08,1.913,0.124,5.132,0.124
				c1.662,0,3.828-0.011,6.653-0.035c7.425-0.068,20.3-0.294,39.468-0.992c15.616-0.568,70.413-3.604,132.995-7.362
				c-3.392,14.762-10.308,49.005-11.81,88.257c-1.656,43.268,0.524,62.458,1.117,66.712c-33.656,0.652-62.283,1.182-62.902,1.193
				l-238.032,5.266l0.024,1.076l238.03-5.266c1.339-0.024,134.274-2.49,164.844-3.336c31.374-0.871,34.819-2.663,61.383-31.96
				c26.907-29.672,80.442-101.801,87.104-111.225c6.163-8.71,4.901-10.261-0.016-13.85c-0.552-0.404-1.149-0.84-1.783-1.328
				c-3.31-2.55-6.11-7.751-7.977-11.832c52.388-7.504,64.994-25.676,66.346-27.885l-0.424-0.336L958.135,490.913z M900.024,532.046
				c0.643,0.495,1.249,0.937,1.808,1.343c4.426,3.231,5.615,4.099-0.23,12.361c-6.653,9.417-60.148,81.484-87.02,111.121
				c-26.275,28.977-29.675,30.749-60.617,31.609c-16.314,0.451-61.787,1.363-100.851,2.121c-0.551-3.851-2.8-22.876-1.125-66.646
				c1.51-39.451,8.498-73.819,11.854-88.37c81.797-4.919,176.537-11.057,214.438-14.541c4.7-0.433,9.128-0.949,13.313-1.53
				C893.508,523.738,896.456,529.297,900.024,532.046z"/>
			<path fill="#B6B8BA" d="M543.882,462.472c78.823-23.367,157.494-20.691,199.758-19.255l5.429,0.183
				c0.888,0.033,90.058,3.963,198.427,41.909c0.528,0.237,1.054,0.476,1.578,0.712l0.561,0.781c0.141-0.102,0.267-0.23,0.4-0.347
				c58.591,26.415,110.515,49.13,111.04,49.36l0.431-0.985c-0.524-0.23-52.214-22.843-110.683-49.197
				c1.348-1.676,2.108-4.022,2.641-5.702c0.203-0.642,0.457-1.44,0.588-1.594l-0.391-0.371l-0.387-0.375
				c-0.281,0.291-0.469,0.858-0.837,2.014c-0.53,1.676-1.297,4.06-2.627,5.568c-0.639-0.287-1.275-0.574-1.914-0.862
				c-108.575-38.021-197.894-41.952-198.787-41.987l-5.432-0.183c-42.325-1.441-121.112-4.119-200.1,19.299
				c-81.668,24.213-144.3,75.339-144.923,75.852l0.685,0.831C399.959,537.61,462.422,486.621,543.882,462.472z"/>
			<path fill="#A3A5A8" d="M152.604,597.754l0.082,1.074c0.235-0.018,23.606-1.783,30.009-0.833
				c6.426,0.946,18.089,4.229,18.206,4.262l0.292-1.039c-0.118-0.031-11.846-3.332-18.341-4.289
				C176.332,595.962,153.571,597.681,152.604,597.754z"/>
		</g>
		<g>
			
				<ellipse transform="matrix(0.9998 -0.0185 0.0185 0.9998 -12.5112 4.8149)" fill="#222223" cx="253.532" cy="677.445" rx="85.488" ry="84.784"/>
			<linearGradient id="SVGID_1_" gradientUnits="userSpaceOnUse" x1="209.297" y1="655.672" x2="321.8241" y2="711.0566">
				<stop  offset="0" style="stop-color:#FFFFFF"/>
				<stop  offset="0.4391" style="stop-color:#C4C4C4"/>
				<stop  offset="1" style="stop-color:#F8F8F8"/>
			</linearGradient>
			<path fill="url(#SVGID_1_)" d="M317.703,676.254c-0.651-35.149-29.91-63.112-65.351-62.454
				c-35.441,0.658-63.643,29.683-62.992,64.832c0.652,35.151,29.911,63.114,65.352,62.457
				C290.152,740.431,318.355,711.403,317.703,676.254z"/>
			<g>
				<path fill="#414042" d="M236.212,674.398c1.306-0.683,2.206-5.478-0.805-7.895c-3.012-2.417-18.016-11.534-22.15-12.283
					c-4.134-0.745-9.412-0.977-9.098-1.807c0.263-0.696,0.118-4.751,0.354-6.233c-1.306,3.021-8.829,18.214-9.714,25.855
					c-0.198,1.71,19.82,2.271,27.076,2.466C229.13,674.696,234.908,675.083,236.212,674.398z M204.693,645.644
					c-0.078,0.055-0.135,0.252-0.18,0.535C204.674,645.805,204.746,645.606,204.693,645.644z M269.473,672.628l0.012,0.658
					c4.297,0.581,6.348,4.497,14.428,4.678c8.078,0.181,25.435-6.074,25.435-6.074s0,0,3.029,3.405
					c0.391-5.612-5.566-24.62-6.061-24.613c-0.493,0.009-5.876,3.076-12.9,6.503C286.393,660.612,271.111,672.102,269.473,672.628z
					 M255.081,660.862c4.076-2.38,6.495-5.228,7.829-13.328c1.334-8.103,2.752-20.491,2.752-20.491s-0.559-3.449,0.915-3.973
					c1.474-0.521,4.776-0.254,5.27-0.263c0.494-0.009-14.446-5.668-29.695-1.425c-1.588,0.44,8.721,34.781,9.25,36.581
					C251.929,659.77,251.004,663.246,255.081,660.862z M241.161,692.437c-1.825-0.625-5.571,1.752-10.111,5.791
					c-4.54,4.039-16.624,19.098-16.624,19.098c2.712,4.07,16.212,12.062,16.212,12.062s11.777-31.536,13.047-34.194
					C244.955,692.535,242.986,693.063,241.161,692.437z M274.231,680.287c-4.316-1.732-12.453-4.879-11.495-6.545
					c0.959-1.666,2.074-3.829,5.835-5.383c3.762-1.551,5.672-5.215,7.124-6.89c1.452-1.675,23.003-21.685,23.003-21.685
					s-12.739-11.469-17.712-13.025c-6.823,14.302-17.189,33.117-20.753,36.482c-3.562,3.361-8.405,8.889-9.631,4.958
					c-1.227-3.933-3.684-11.965-8.557-16.985c-4.872-5.018-10.963-22.375-10.963-22.375l4.662-6.352c0,0-17.488,8.071-24.114,15.117
					c9.551,8.394,27.807,24.041,30.25,31.414c2.444,7.371,4.288,8.987,0.663,9.053c-3.624,0.066-12.843,0.731-12.843,0.731
					s-8.161,4.273-17.882,4.455c-9.722,0.179-16.289,1.62-16.279,2.112c0.009,0.493,6.563,16.197,7.939,19.299
					c13.526-8.324,27.252-14.84,29.866-16.044c2.615-1.202,8.021-2.948,12.318-2.371c4.296,0.579,6.433,0.21,5.648,2.369
					c-0.361,0.992-4.25,10.792-3.823,16.06c0.426,5.266-2.524,23.944-2.84,24.609c-0.318,0.667-1.237,4.475-1.237,4.475
					l19.952,0.457c0,0-7.149-30.031-6.058-33.348c1.093-3.319,2.842-15.711,4.328-15.576c1.485,0.137,9.679,6.415,10.676,6.892
					c0.997,0.473,4.927-0.917,8.931,1.644c4.003,2.563,21.135,10.982,22.466,11.616c1.33,0.634,8.321-13.505,8.907-17.469
					C304.018,686.659,278.547,682.021,274.231,680.287z M265.194,691.885c-0.486,0.157-4.721,4.068-1.742,10.646
					c2.979,6.58,15.268,25.336,15.268,25.336s10.536-4.176,18.08-10.131c-9.014-7.287-24.484-21.491-27.069-23.281
					C269.732,694.455,266.209,691.558,265.194,691.885z"/>
			</g>
			<path fill="#B1B3B6" d="M250.148,675.399l7.394-0.137c0,0,1.178,1.827-0.142,1.854c-1.321,0.024-2.02,0.3-2.02,0.3l0.105,5.635
				c0,0-2.337,2.243-2.389-0.572c-0.052-2.817-0.004-4.932-0.004-4.932l-2.647-0.303
				C250.447,677.244,248.397,675.96,250.148,675.399z"/>
		</g>
		<g>
			<path fill="#222223" d="M1014.808,675.861c-0.866-46.818-39.837-84.062-87.042-83.185c-47.206,0.873-84.772,39.534-83.904,86.353
				c0.866,46.818,39.84,84.059,87.046,83.186C978.11,761.338,1015.676,722.678,1014.808,675.861z"/>
			<linearGradient id="SVGID_2_" gradientUnits="userSpaceOnUse" x1="341.0822" y1="387.9121" x2="453.6094" y2="443.2967">
				<stop  offset="0" style="stop-color:#FFFFFF"/>
				<stop  offset="0.4391" style="stop-color:#C4C4C4"/>
				<stop  offset="1" style="stop-color:#F8F8F8"/>
			</linearGradient>
			<path fill="url(#SVGID_2_)" d="M993.509,676.254c-0.654-35.149-29.912-63.112-65.354-62.454
				c-35.44,0.658-63.642,29.683-62.99,64.832c0.652,35.151,29.909,63.114,65.35,62.457
				C965.955,740.431,994.159,711.403,993.509,676.254z"/>
			<g>
				<path fill="#414042" d="M912.016,674.398c1.306-0.683,2.207-5.478-0.807-7.895c-3.012-2.417-18.015-11.534-22.149-12.283
					c-4.134-0.745-9.413-0.977-9.097-1.807c0.261-0.696,0.117-4.751,0.351-6.233c-1.304,3.021-8.828,18.214-9.711,25.855
					c-0.199,1.71,19.82,2.271,27.075,2.466C904.934,674.696,910.71,675.083,912.016,674.398z M880.498,645.644
					c-0.077,0.055-0.137,0.252-0.183,0.535C880.478,645.805,880.551,645.606,880.498,645.644z M945.277,672.628l0.011,0.658
					c4.298,0.581,6.348,4.497,14.427,4.678c8.081,0.181,25.437-6.074,25.437-6.074s0,0,3.029,3.405
					c0.389-5.612-5.568-24.62-6.061-24.613c-0.495,0.009-5.875,3.076-12.9,6.503C962.196,660.612,946.915,672.102,945.277,672.628z
					 M930.886,660.862c4.075-2.38,6.492-5.228,7.827-13.328c1.335-8.103,2.753-20.491,2.753-20.491s-0.559-3.449,0.915-3.973
					c1.474-0.521,4.775-0.254,5.27-0.263c0.495-0.009-14.447-5.668-29.693-1.425c-1.591,0.44,8.719,34.781,9.247,36.581
					C927.733,659.77,926.807,663.246,930.886,660.862z M916.965,692.437c-1.825-0.625-5.573,1.752-10.111,5.791
					c-4.539,4.039-16.625,19.098-16.625,19.098c2.711,4.07,16.214,12.062,16.214,12.062s11.775-31.536,13.046-34.194
					C920.759,692.535,918.79,693.063,916.965,692.437z M950.035,680.287c-4.318-1.732-12.453-4.879-11.497-6.545
					c0.961-1.666,2.075-3.829,5.838-5.383c3.761-1.551,5.67-5.215,7.122-6.89c1.452-1.675,23.004-21.685,23.004-21.685
					s-12.739-11.469-17.712-13.025c-6.823,14.302-17.189,33.117-20.753,36.482c-3.562,3.361-8.405,8.889-9.632,4.958
					c-1.226-3.933-3.684-11.965-8.556-16.985c-4.874-5.018-10.964-22.375-10.964-22.375l4.664-6.352c0,0-17.489,8.071-24.116,15.117
					c9.552,8.394,27.806,24.041,30.252,31.414c2.442,7.371,4.287,8.987,0.661,9.053c-3.624,0.066-12.842,0.731-12.842,0.731
					s-8.162,4.273-17.88,4.455c-9.725,0.179-16.289,1.62-16.281,2.112c0.009,0.493,6.563,16.197,7.937,19.299
					c13.527-8.324,27.254-14.84,29.868-16.044c2.614-1.202,8.023-2.948,12.316-2.371c4.298,0.579,6.434,0.21,5.65,2.369
					c-0.36,0.992-4.249,10.792-3.825,16.06c0.429,5.266-2.521,23.944-2.839,24.609c-0.318,0.667-1.235,4.475-1.235,4.475
					l19.951,0.457c0,0-7.148-30.031-6.057-33.348c1.092-3.319,2.842-15.711,4.329-15.576c1.485,0.137,9.678,6.415,10.672,6.892
					c0.999,0.473,4.93-0.917,8.934,1.644c4.002,2.563,21.135,10.982,22.468,11.616c1.328,0.634,8.319-13.505,8.905-17.469
					C979.823,686.659,954.35,682.021,950.035,680.287z M940.997,691.885c-0.484,0.157-4.72,4.068-1.741,10.646
					c2.981,6.58,15.269,25.336,15.269,25.336s10.536-4.176,18.079-10.131c-9.013-7.287-24.485-21.491-27.07-23.281
					C945.534,694.455,942.014,691.558,940.997,691.885z"/>
			</g>
			<path fill="#B1B3B6" d="M925.952,675.399l7.396-0.137c0,0,1.178,1.827-0.144,1.854c-1.319,0.024-2.02,0.3-2.02,0.3l0.106,5.635
				c0,0-2.336,2.243-2.389-0.572c-0.053-2.817-0.004-4.932-0.004-4.932l-2.647-0.303C926.25,677.244,924.2,675.96,925.952,675.399z"
				/>
		</g>
	</g>
	<path fill="#FFFFFF" d="M479.403,528.925c-1.533,0-31.889,5.212-31.889,5.212s29.129,0.92,30.356,0.92
		C479.096,535.058,479.403,528.925,479.403,528.925z"/>
	<path fill="#FFFFFF" d="M478.483,539.657c0.498-1.162-31.889-1.227-32.809-0.307c-0.92,0.92,0,7.359,0,7.359
		s-1.534-6.439,7.053-6.439C461.313,540.27,477.563,541.804,478.483,539.657z"/>
	<path fill="#FFFFFF" d="M472.658,515.74c1.26,0.54-25.757,15.024-25.757,15.024l8.585-15.331
		C455.486,515.433,466.219,512.981,472.658,515.74z"/>
</g>
</svg>
